<svg xmlns="http://www.w3.org/2000/svg" width="542.167" height="152.917" viewBox="0 0 542.167 152.917"><g><path fill="#2C3E50" d="M192.871 16.083h-114.396v-8.577c0-3.429-2.78-6.209-6.209-6.209h-37.689c-3.429 0-6.209 2.78-6.209 6.209v8.577h-2.955c-13.717 0-24.837 11.12-24.837 24.837v85.588c0 13.717 11.12 24.837 24.837 24.837h167.457c13.717 0 24.837-11.12 24.837-24.837v-85.588c.001-13.717-11.119-24.837-24.836-24.837zm-67.574 115c-25.783 0-46.685-20.902-46.685-46.685s20.902-46.685 46.685-46.685 46.685 20.901 46.685 46.685c-.001 25.783-20.902 46.685-46.685 46.685z"/><path fill="#E84C3C" d="M145.376 84.706c0 10.006-8.111 18.117-18.117 18.117s-18.117-8.111-18.117-18.117 8.111-18.117 18.117-18.117v18.117h18.117z"/><g fill="#2C3E50"><path d="M264.603 53.422c-.693-.262-1.764-.609-3.234-1.039-1.459-.43-3.265-.64-5.417-.64-1.459 0-2.919.168-4.378.514-1.47.346-2.782.903-3.937 1.68-1.165.777-2.089 1.806-2.772 3.097-.693 1.291-1.039 2.877-1.039 4.766 0 2.499.84 4.546 2.52 6.131 1.68 1.596 3.821 3.055 6.446 4.388s5.491 2.73 8.577 4.189c3.097 1.47 6.068 3.223 8.903 5.291 3.276 2.499 5.942 5.48 8 8.966 2.068 3.486 3.097 7.674 3.097 12.577 0 4.126-.693 7.853-2.068 11.16-1.375 3.307-3.286 6.173-5.732 8.577-2.457 2.415-5.407 4.262-8.84 5.554-3.444 1.281-7.181 1.932-11.223 1.932-2.415 0-5.165-.199-8.262-.577-3.087-.388-5.995-.955-8.703-1.68-2.709-.735-4.987-1.638-6.835-2.709-1.858-1.081-2.772-2.341-2.772-3.811v-19.475c0-.861.126-1.438.378-1.743.262-.304.861-.451 1.806-.451h9.554c.945 0 1.543.126 1.806.388.252.252.388.861.388 1.806v11.737c.945.346 2.509.861 4.703 1.543 2.194.693 4.661 1.039 7.422 1.039 3.611 0 6.446-.966 8.514-2.908 2.058-1.932 3.097-4.924 3.097-8.966 0-2.835-.756-5.134-2.257-6.898-1.512-1.764-3.486-3.328-5.942-4.714-2.446-1.375-5.27-2.73-8.451-4.063-3.181-1.333-6.404-2.982-9.669-4.966-3.444-2.058-6.173-4.577-8.189-7.548-2.026-2.961-3.034-7.108-3.034-12.441 0-4.651.777-8.63 2.32-11.937 1.543-3.307 3.633-6.037 6.257-8.189 2.625-2.152 5.627-3.727 9.029-4.714s6.992-1.48 10.771-1.48c2.236 0 4.714.189 7.422.577 2.709.388 5.218.966 7.548 1.743 2.32.777 4.252 1.68 5.806 2.709 1.543 1.029 2.32 2.194 2.32 3.486v17.417c0 .945-.157 1.543-.451 1.806-.304.252-.882.388-1.743.388h-9.543c-.955 0-1.554-.136-1.816-.388-.252-.262-.378-.861-.378-1.806v-10.318zM294.272 100.896c-1.207 0-2.005-.241-2.394-.714-.378-.472-.577-1.312-.577-2.52 0-3.863.325-7.884.966-12.052.651-4.178 1.9-7.979 3.748-11.422s4.451-6.257 7.8-8.451c3.36-2.194 7.79-3.286 13.291-3.286 4.294 0 8.189.84 11.674 2.509 3.486 1.68 6.446 4.052 8.903 7.097 2.446 3.055 4.336 6.709 5.669 10.971 1.333 4.252 2.005 8.966 2.005 14.121 0 5.942-.714 11.013-2.131 15.223-1.417 4.22-3.402 7.674-5.932 10.383-2.541 2.719-5.575 4.693-9.102 5.942-3.517 1.239-7.433 1.869-11.737 1.869-2.583 0-5.218-.241-7.926-.714-2.719-.472-5.186-1.071-7.422-1.806-2.236-.724-4.084-1.543-5.543-2.446-1.47-.903-2.194-1.785-2.194-2.646 0-.262.042-.514.126-.777.084-.252.168-.472.262-.64l3.223-7.748c.346-.682.819-1.029 1.417-1.029.43 0 1.092.22 1.995.651.903.43 2.047.924 3.423 1.48 1.375.556 2.971 1.05 4.777 1.48 1.806.43 3.863.651 6.184.651 3.013 0 5.449-.493 7.296-1.491 1.848-.987 3.286-2.278 4.315-3.863 1.039-1.596 1.722-3.339 2.068-5.228.346-1.89.514-3.737.514-5.543h-34.698zm34.698-11.999c-.084-.861-.231-2.11-.451-3.737-.21-1.638-.682-3.255-1.417-4.84-.735-1.596-1.806-2.971-3.223-4.126-1.417-1.165-3.381-1.743-5.869-1.743-2.236 0-3.979.493-5.228 1.48s-2.173 2.236-2.772 3.737c-.598 1.512-.966 3.097-1.102 4.777-.126 1.68-.189 3.16-.189 4.451h20.251zM359.164 47.868h-6.457c-.766 0-1.27-.126-1.48-.388-.22-.252-.325-.724-.325-1.417v-8.378c0-.693.105-1.165.325-1.428.21-.252.714-.378 1.48-.378h21.029c.777 0 1.27.126 1.491.378.21.262.315.735.315 1.428v70.298c0 2.068.157 3.874.451 5.428.304 1.543 1.354 2.32 3.16 2.32 1.291 0 2.341-.199 3.16-.588.819-.378 1.449-.577 1.879-.577.514 0 .85.262 1.029.777l2.583 10.583c.168.336.252.682.252 1.029 0 .43-.388.861-1.155 1.291-.777.43-1.785.808-3.034 1.155s-2.646.63-4.189.84c-1.554.22-3.097.325-4.651.325-3.958 0-7.013-.735-9.155-2.194-2.152-1.459-3.727-3.402-4.714-5.806-.987-2.404-1.564-5.071-1.743-8-.168-2.919-.252-5.89-.252-8.903v-57.795zM431.918 125.662c0 1.207-.178 1.953-.514 2.257-.346.304-1.081.451-2.194.451h-33.028c-1.113 0-1.848-.147-2.194-.451-.346-.304-.514-1.05-.514-2.257v-6.583c0-1.197.168-1.953.514-2.257.346-.294 1.081-.451 2.194-.451h7.874v-39.726h-9.165c-1.113 0-1.848-.157-2.194-.451-.336-.304-.514-1.06-.514-2.268v-6.572c0-1.207.178-1.953.514-2.257.346-.304 1.081-.451 2.194-.451h9.165v-5.291c0-3.528.336-6.793 1.029-9.806.682-3.013 1.848-5.585 3.486-7.737 1.627-2.152 3.758-3.832 6.383-5.029 2.625-1.207 5.869-1.816 9.743-1.816 1.459 0 3.097.136 4.903.388 1.806.262 3.527.588 5.155.976 1.638.378 2.992.882 4.063 1.48 1.081.598 1.617 1.207 1.617 1.806 0 .252-.084.64-.262 1.155l-2.32 9.039c-.084.252-.231.535-.451.829-.21.304-.451.451-.703.451-.693 0-1.743-.357-3.16-1.092-1.428-.724-3.381-1.092-5.879-1.092-1.722 0-3.076.252-4.063.766-.987.514-1.722 1.228-2.194 2.131s-.745 2.005-.829 3.286c-.094 1.291-.136 2.709-.136 4.262v5.291h14.708c.598 0 1.113.084 1.554.252.42.178.64.514.64 1.039 0 .252-.021.472-.063.64-.042.178-.105.388-.199.64l-1.806 7.611c-.168.861-.451 1.386-.829 1.554-.388.168-.934.262-1.617.262h-12.388v39.726h8.777c1.113 0 1.848.157 2.194.451.336.304.514 1.06.514 2.257v6.587zM478.616 126.565c0 .693-.105 1.165-.325 1.417-.21.262-.703.388-1.48.388h-32.892c-.777 0-1.27-.126-1.491-.388-.21-.252-.315-.724-.315-1.417v-8.388c0-.682.105-1.155.315-1.417.22-.252.714-.388 1.491-.388h8.252v-39.727h-8.388c-.766 0-1.27-.136-1.48-.388-.21-.262-.325-.735-.325-1.428v-8.378c0-.693.116-1.165.325-1.417.21-.262.714-.388 1.48-.388h22.971c.766 0 1.26.126 1.48.388.21.252.325.724.325 1.417v49.921h8.252c.777 0 1.27.136 1.48.388.22.262.325.735.325 1.417v8.388zm-7.738-81.017c0 3.013-1.029 5.543-3.097 7.611-2.068 2.068-4.556 3.097-7.485 3.097-3.013 0-5.543-1.029-7.611-3.097-2.058-2.068-3.097-4.598-3.097-7.611s1.039-5.522 3.097-7.548c2.068-2.016 4.598-3.034 7.611-3.034 2.929 0 5.417 1.018 7.485 3.034 2.069 2.026 3.097 4.535 3.097 7.548zM503.518 100.896c0 1.806.168 3.653.514 5.543.346 1.89 1.029 3.632 2.068 5.228 1.029 1.585 2.467 2.877 4.315 3.863 1.848.997 4.283 1.491 7.297 1.491 2.32 0 4.378-.22 6.184-.651 1.806-.43 3.402-.924 4.777-1.48 1.375-.556 2.52-1.05 3.423-1.48.903-.43 1.564-.651 1.995-.651.598 0 1.071.346 1.417 1.029l3.223 7.748c.094.168.178.388.262.64.084.262.126.514.126.777 0 .861-.724 1.743-2.194 2.646-1.459.903-3.307 1.722-5.543 2.446-2.236.735-4.703 1.333-7.422 1.806-2.709.472-5.344.714-7.926.714-4.304 0-8.22-.63-11.737-1.869-3.527-1.249-6.562-3.223-9.102-5.942-2.53-2.709-4.514-6.163-5.932-10.383-1.417-4.21-2.131-9.281-2.131-15.223 0-5.155.672-9.869 2.005-14.121 1.333-4.262 3.223-7.916 5.669-10.971 2.457-3.045 5.417-5.417 8.903-7.097 3.486-1.669 7.38-2.509 11.674-2.509 5.501 0 9.932 1.092 13.291 3.286 3.349 2.194 5.953 5.008 7.8 8.451s3.097 7.244 3.748 11.422c.64 4.168.966 8.189.966 12.052 0 1.207-.2 2.047-.577 2.52-.388.472-1.186.714-2.394.714h-34.699zm20.252-11.999c0-1.291-.063-2.772-.189-4.451-.136-1.68-.504-3.265-1.102-4.777-.598-1.501-1.522-2.751-2.772-3.737s-2.992-1.48-5.228-1.48c-2.488 0-4.451.577-5.869 1.743-1.417 1.155-2.488 2.53-3.223 4.126-.735 1.585-1.207 3.202-1.417 4.84-.22 1.627-.367 2.877-.451 3.737h20.251z"/></g></g></svg>