<svg xmlns="http://www.w3.org/2000/svg" width="218" height="225.302" viewBox="0 0 218 225.302"><g><path fill="#2C3E50" d="M192.537 15.634h-114.395v-8.576c0-3.429-2.78-6.209-6.209-6.209h-37.689c-3.429 0-6.209 2.78-6.209 6.209v8.577h-2.955c-13.717 0-24.837 11.12-24.837 24.837v85.588c0 13.717 11.12 24.837 24.837 24.837h167.457c13.717 0 24.837-11.12 24.837-24.837v-85.589c0-13.717-11.119-24.837-24.837-24.837zm-67.574 115.001c-25.783 0-46.685-20.902-46.685-46.685s20.902-46.685 46.685-46.685 46.685 20.901 46.685 46.685c0 25.783-20.901 46.685-46.685 46.685z"/><path fill="#E84C3C" d="M145.043 84.258c0 10.006-8.111 18.117-18.117 18.117s-18.117-8.111-18.117-18.117 8.111-18.117 18.117-18.117v18.117h18.117z"/><g fill="#2C3E50"><path d="M25.681 171.707c-.48-.182-1.221-.422-2.239-.72-1.01-.298-2.261-.443-3.751-.443-1.01 0-2.021.116-3.031.356-1.018.24-1.926.625-2.726 1.163-.807.538-1.446 1.25-1.919 2.144-.48.894-.72 1.992-.72 3.3 0 1.73.581 3.147 1.744 4.245 1.163 1.105 2.646 2.115 4.463 3.038s3.801 1.89 5.938 2.9c2.144 1.018 4.201 2.231 6.164 3.663 2.268 1.73 4.114 3.794 5.539 6.207 1.432 2.413 2.144 5.313 2.144 8.708 0 2.857-.48 5.437-1.432 7.727s-2.275 4.274-3.969 5.938c-1.701 1.672-3.743 2.951-6.12 3.845-2.384.887-4.972 1.337-7.77 1.337-1.672 0-3.576-.138-5.72-.4-2.137-.269-4.15-.661-6.026-1.163-1.875-.509-3.453-1.134-4.732-1.875-1.287-.749-1.919-1.621-1.919-2.639v-13.483c0-.596.087-.996.262-1.207.182-.211.596-.313 1.25-.313h6.614c.654 0 1.068.087 1.25.269.174.174.269.596.269 1.25v8.126c.654.24 1.737.596 3.256 1.068 1.519.48 3.227.72 5.139.72 2.5 0 4.463-.669 5.895-2.013 1.425-1.337 2.144-3.409 2.144-6.207 0-1.963-.523-3.554-1.563-4.775-1.047-1.221-2.413-2.304-4.114-3.264-1.694-.952-3.649-1.89-5.851-2.813-2.202-.923-4.434-2.064-6.694-3.438-2.384-1.425-4.274-3.169-5.67-5.226-1.403-2.05-2.101-4.921-2.101-8.613 0-3.22.538-5.975 1.606-8.264 1.068-2.29 2.515-4.179 4.332-5.67s3.896-2.58 6.251-3.264 4.841-1.025 7.458-1.025c1.548 0 3.264.131 5.139.4 1.875.269 3.612.669 5.226 1.207 1.606.538 2.944 1.163 4.02 1.875 1.068.712 1.606 1.519 1.606 2.413v12.059c0 .654-.109 1.068-.313 1.25-.211.174-.611.269-1.207.269h-6.603c-.661 0-1.076-.094-1.257-.269-.174-.182-.262-.596-.262-1.25v-7.143zM46.222 204.576c-.836 0-1.388-.167-1.657-.494-.262-.327-.4-.909-.4-1.744 0-2.675.225-5.459.669-8.344.451-2.893 1.316-5.524 2.595-7.908 1.279-2.384 3.082-4.332 5.401-5.851 2.326-1.519 5.393-2.275 9.202-2.275 2.973 0 5.67.581 8.083 1.737 2.413 1.163 4.463 2.806 6.164 4.914 1.694 2.115 3.002 4.645 3.925 7.596.923 2.944 1.388 6.207 1.388 9.776 0 4.114-.494 7.625-1.476 10.539-.981 2.922-2.355 5.313-4.107 7.189-1.759 1.883-3.86 3.249-6.302 4.114-2.435.858-5.146 1.294-8.126 1.294-1.788 0-3.612-.167-5.488-.494-1.883-.327-3.591-.741-5.139-1.25-1.548-.502-2.827-1.068-3.838-1.694-1.018-.625-1.519-1.236-1.519-1.832 0-.182.029-.356.087-.538.058-.174.116-.327.182-.443l2.231-5.364c.24-.472.567-.712.981-.712.298 0 .756.153 1.381.451s1.417.64 2.37 1.025 2.057.727 3.307 1.025c1.25.298 2.675.451 4.281.451 2.086 0 3.772-.342 5.052-1.032 1.279-.683 2.275-1.577 2.987-2.675.72-1.105 1.192-2.311 1.432-3.62.24-1.308.356-2.588.356-3.838h-24.022zm24.023-8.308c-.058-.596-.16-1.461-.313-2.588-.145-1.134-.472-2.253-.981-3.351-.509-1.105-1.25-2.057-2.231-2.857-.981-.807-2.34-1.207-4.063-1.207-1.548 0-2.755.342-3.62 1.025-.865.683-1.505 1.548-1.919 2.588-.414 1.047-.669 2.144-.763 3.307-.087 1.163-.131 2.188-.131 3.082h14.021zM91.149 167.862h-4.47c-.531 0-.879-.087-1.025-.269-.153-.174-.225-.502-.225-.981v-5.8c0-.48.073-.807.225-.989.145-.174.494-.262 1.025-.262h14.559c.538 0 .879.087 1.032.262.145.182.218.509.218.989v48.671c0 1.432.109 2.682.313 3.758.211 1.068.938 1.606 2.188 1.606.894 0 1.621-.138 2.188-.407.567-.262 1.003-.4 1.301-.4.356 0 .589.182.712.538l1.788 7.327c.116.233.174.472.174.712 0 .298-.269.596-.8.894-.538.298-1.236.56-2.101.8s-1.832.436-2.9.581c-1.076.153-2.144.225-3.22.225-2.74 0-4.855-.509-6.338-1.519-1.49-1.01-2.58-2.355-3.264-4.02s-1.083-3.511-1.207-5.539c-.116-2.021-.174-4.078-.174-6.164v-40.013zM141.52 221.723c0 .836-.124 1.352-.356 1.563-.24.211-.749.313-1.519.313h-22.867c-.77 0-1.279-.102-1.519-.313-.24-.211-.356-.727-.356-1.563v-4.557c0-.829.116-1.352.356-1.563.24-.204.749-.313 1.519-.313h5.451v-27.504h-6.345c-.77 0-1.279-.109-1.519-.313-.233-.211-.356-.734-.356-1.57v-4.55c0-.836.124-1.352.356-1.563.24-.211.749-.313 1.519-.313h6.345v-3.663c0-2.442.233-4.703.712-6.789.472-2.086 1.279-3.867 2.413-5.357 1.127-1.49 2.602-2.653 4.419-3.482 1.817-.836 4.063-1.257 6.745-1.257 1.01 0 2.144.094 3.394.269 1.25.182 2.442.407 3.569.676 1.134.262 2.072.611 2.813 1.025.749.414 1.119.836 1.119 1.25 0 .174-.058.443-.182.8l-1.606 6.258c-.058.174-.16.371-.313.574-.145.211-.313.313-.487.313-.48 0-1.207-.247-2.188-.756-.989-.502-2.34-.756-4.07-.756-1.192 0-2.13.174-2.813.531-.683.356-1.192.85-1.519 1.476-.327.625-.516 1.388-.574 2.275-.065.894-.094 1.875-.094 2.951v3.663h10.183c.414 0 .77.058 1.076.174.291.124.443.356.443.72 0 .174-.015.327-.044.443-.029.124-.073.269-.138.443l-1.25 5.27c-.116.596-.313.959-.574 1.076-.269.116-.647.182-1.119.182h-8.577v27.504h6.077c.77 0 1.279.109 1.519.313.233.211.356.734.356 1.563v4.557zM173.851 222.348c0 .48-.073.807-.225.981-.145.182-.487.269-1.025.269h-22.773c-.538 0-.879-.087-1.032-.269-.145-.174-.218-.502-.218-.981v-5.808c0-.472.073-.8.218-.981.153-.174.494-.269 1.032-.269h5.713v-27.504h-5.808c-.531 0-.88-.094-1.025-.269-.145-.182-.225-.509-.225-.989v-5.8c0-.48.08-.807.225-.981.145-.182.494-.269 1.025-.269h15.904c.531 0 .872.087 1.025.269.145.174.225.502.225.981v34.562h5.713c.538 0 .88.094 1.025.269.153.182.225.509.225.981v5.808zm-5.357-56.092c0 2.086-.712 3.838-2.144 5.27s-3.155 2.144-5.182 2.144c-2.086 0-3.838-.712-5.27-2.144-1.425-1.432-2.144-3.184-2.144-5.27s.72-3.823 2.144-5.226c1.432-1.396 3.184-2.101 5.27-2.101 2.028 0 3.751.705 5.182 2.101 1.432 1.403 2.144 3.14 2.144 5.226zM191.092 204.576c0 1.25.116 2.529.356 3.838.24 1.308.712 2.515 1.432 3.62.712 1.098 1.708 1.992 2.987 2.675 1.279.691 2.966 1.032 5.052 1.032 1.606 0 3.031-.153 4.281-.451s2.355-.64 3.307-1.025c.952-.385 1.744-.727 2.37-1.025.625-.298 1.083-.451 1.381-.451.414 0 .741.24.981.712l2.231 5.364c.065.116.124.269.182.443.058.182.087.356.087.538 0 .596-.502 1.207-1.519 1.832-1.01.625-2.29 1.192-3.838 1.694-1.548.509-3.256.923-5.139 1.25-1.875.327-3.7.494-5.488.494-2.98 0-5.691-.436-8.126-1.294-2.442-.865-4.543-2.231-6.302-4.114-1.752-1.875-3.125-4.267-4.107-7.189-.981-2.915-1.476-6.425-1.476-10.539 0-3.569.465-6.832 1.388-9.776.923-2.951 2.231-5.481 3.925-7.596 1.701-2.108 3.751-3.751 6.164-4.914 2.413-1.156 5.11-1.737 8.083-1.737 3.809 0 6.876.756 9.202 2.275 2.319 1.519 4.121 3.467 5.401 5.851 1.279 2.384 2.144 5.015 2.595 7.908.443 2.886.669 5.67.669 8.344 0 .836-.138 1.417-.4 1.744-.269.327-.821.494-1.657.494h-24.022zm14.021-8.308c0-.894-.044-1.919-.131-3.082-.094-1.163-.349-2.261-.763-3.307-.414-1.039-1.054-1.904-1.919-2.588-.865-.683-2.072-1.025-3.62-1.025-1.723 0-3.082.4-4.063 1.207-.981.8-1.723 1.752-2.231 2.857-.509 1.098-.836 2.217-.981 3.351-.153 1.127-.254 1.992-.313 2.588h14.021z"/></g></g></svg>