<svg xmlns="http://www.w3.org/2000/svg" width="542.167" height="152.917" viewBox="0 0 542.167 152.917"><g><path fill="#2C3E50" d="M192.87 16.083H78.476V7.506c0-3.43-2.78-6.21-6.21-6.21H34.578c-3.43 0-6.21 2.78-6.21 6.21v8.577h-2.954C11.696 16.083.576 27.203.576 40.92v85.588c0 13.717 11.12 24.837 24.837 24.837H192.87c13.717 0 24.837-11.12 24.837-24.837V40.92c0-13.717-11.12-24.837-24.836-24.837zm-67.573 115c-25.783 0-46.685-20.902-46.685-46.685s20.902-46.685 46.685-46.685 46.685 20.9 46.685 46.685c0 25.783-20.902 46.685-46.685 46.685z"/><path fill="#E84C3C" d="M145.376 84.706c0 10.006-8.11 18.117-18.117 18.117s-18.118-8.11-18.118-18.117 8.11-18.117 18.117-18.117v18.116h18.116z"/><g fill="#2C3E50"><path d="M264.603 53.422c-.693-.262-1.764-.61-3.234-1.04-1.46-.43-3.266-.64-5.418-.64-1.46 0-2.92.17-4.378.515-1.47.346-2.782.903-3.937 1.68-1.165.777-2.09 1.806-2.772 3.097-.693 1.29-1.04 2.877-1.04 4.766 0 2.5.84 4.546 2.52 6.13 1.68 1.597 3.822 3.056 6.447 4.39s5.49 2.73 8.577 4.188c3.096 1.47 6.067 3.223 8.902 5.29 3.276 2.5 5.942 5.48 8 8.967 2.068 3.486 3.097 7.674 3.097 12.577 0 4.126-.694 7.853-2.07 11.16-1.374 3.307-3.285 6.173-5.73 8.577-2.458 2.414-5.408 4.26-8.84 5.553-3.445 1.28-7.182 1.932-11.224 1.932-2.415 0-5.165-.2-8.262-.577-3.087-.388-5.995-.955-8.703-1.68-2.708-.735-4.986-1.638-6.834-2.71-1.858-1.08-2.772-2.34-2.772-3.81v-19.475c0-.86.126-1.438.378-1.743.262-.304.86-.45 1.806-.45h9.554c.945 0 1.543.125 1.806.387.252.252.388.86.388 1.806v11.737c.945.346 2.51.86 4.703 1.543 2.193.693 4.66 1.04 7.42 1.04 3.612 0 6.447-.967 8.515-2.91 2.058-1.93 3.097-4.923 3.097-8.965 0-2.835-.756-5.134-2.257-6.898-1.512-1.764-3.486-3.328-5.942-4.714-2.446-1.375-5.27-2.73-8.45-4.063-3.182-1.333-6.405-2.982-9.67-4.966-3.444-2.058-6.173-4.577-8.19-7.548-2.025-2.962-3.033-7.11-3.033-12.442 0-4.65.777-8.63 2.32-11.937 1.543-3.306 3.633-6.036 6.257-8.188 2.625-2.152 5.627-3.727 9.03-4.714s6.99-1.48 10.77-1.48c2.236 0 4.714.19 7.422.577 2.708.388 5.217.966 7.547 1.743 2.32.777 4.252 1.68 5.806 2.71 1.543 1.028 2.32 2.193 2.32 3.485V63.74c0 .945-.157 1.543-.45 1.806-.305.252-.883.388-1.744.388h-9.544c-.955 0-1.554-.136-1.816-.388-.252-.262-.378-.86-.378-1.806V53.422zM294.272 100.896c-1.207 0-2.005-.24-2.394-.714-.378-.472-.577-1.312-.577-2.52 0-3.863.326-7.884.967-12.052.65-4.178 1.9-7.98 3.748-11.422s4.45-6.257 7.8-8.45c3.36-2.195 7.79-3.287 13.29-3.287 4.295 0 8.19.84 11.675 2.51 3.486 1.68 6.446 4.052 8.903 7.097 2.446 3.055 4.336 6.71 5.67 10.97 1.332 4.253 2.004 8.967 2.004 14.122 0 5.94-.714 11.012-2.13 15.222-1.418 4.22-3.403 7.674-5.933 10.383-2.54 2.72-5.575 4.693-9.102 5.942-3.517 1.24-7.433 1.87-11.737 1.87-2.583 0-5.218-.242-7.926-.715-2.72-.472-5.187-1.07-7.423-1.806-2.236-.724-4.084-1.543-5.543-2.446-1.47-.903-2.194-1.785-2.194-2.646 0-.262.042-.514.126-.777.084-.252.168-.472.262-.64l3.223-7.748c.347-.683.82-1.03 1.418-1.03.43 0 1.092.22 1.995.65.903.43 2.047.925 3.423 1.48 1.375.557 2.97 1.05 4.777 1.48 1.806.43 3.863.652 6.184.652 3.013 0 5.45-.493 7.296-1.49 1.848-.988 3.286-2.28 4.315-3.864 1.04-1.596 1.722-3.34 2.068-5.228.346-1.89.514-3.737.514-5.543h-34.698zm34.698-12c-.084-.86-.23-2.11-.45-3.736-.21-1.638-.683-3.255-1.418-4.84-.735-1.596-1.806-2.97-3.223-4.126-1.418-1.165-3.382-1.743-5.87-1.743-2.236 0-3.98.494-5.228 1.48s-2.173 2.237-2.772 3.738c-.598 1.512-.966 3.097-1.102 4.777-.126 1.68-.19 3.16-.19 4.45h20.252zM359.164 47.868h-6.457c-.766 0-1.27-.126-1.48-.388-.22-.252-.325-.724-.325-1.417v-8.378c0-.693.105-1.165.325-1.428.21-.252.714-.378 1.48-.378h21.03c.776 0 1.27.125 1.49.377.21.262.315.735.315 1.428v70.298c0 2.068.157 3.874.45 5.428.305 1.544 1.355 2.32 3.16 2.32 1.292 0 2.342-.198 3.16-.587.82-.378 1.45-.577 1.88-.577.514 0 .85.262 1.03.777l2.582 10.583c.168.336.252.682.252 1.03 0 .43-.388.86-1.155 1.29-.776.43-1.784.808-3.033 1.155s-2.646.63-4.19.84c-1.553.22-3.096.326-4.65.326-3.958 0-7.013-.735-9.155-2.194-2.152-1.46-3.727-3.402-4.714-5.806-.987-2.404-1.564-5.07-1.743-8-.168-2.92-.252-5.89-.252-8.903V47.868zM431.918 125.662c0 1.207-.178 1.953-.514 2.257-.346.303-1.08.45-2.194.45h-33.028c-1.113 0-1.848-.147-2.194-.45-.346-.305-.514-1.05-.514-2.258v-6.583c0-1.198.168-1.954.514-2.258.346-.294 1.08-.45 2.194-.45h7.874V76.644h-9.165c-1.112 0-1.847-.157-2.193-.45-.336-.305-.514-1.06-.514-2.27v-6.57c0-1.208.178-1.954.514-2.258.346-.304 1.08-.45 2.194-.45h9.166v-5.292c0-3.528.336-6.793 1.03-9.806.68-3.014 1.847-5.586 3.485-7.738 1.628-2.152 3.76-3.832 6.384-5.03 2.625-1.206 5.87-1.815 9.743-1.815 1.46 0 3.097.136 4.903.388 1.806.262 3.527.588 5.155.976 1.638.38 2.992.883 4.063 1.48 1.08.6 1.617 1.208 1.617 1.807 0 .252-.084.64-.262 1.155l-2.32 9.04c-.084.25-.23.534-.45.828-.21.304-.452.45-.704.45-.694 0-1.744-.356-3.16-1.09-1.43-.725-3.382-1.093-5.88-1.093-1.722 0-3.076.252-4.063.766-.987.514-1.722 1.228-2.194 2.13s-.745 2.006-.83 3.287c-.093 1.29-.135 2.71-.135 4.262v5.29h14.708c.598 0 1.113.085 1.554.253.42.178.64.514.64 1.04 0 .25-.02.47-.063.64-.042.177-.105.387-.2.64l-1.805 7.61c-.168.86-.45 1.386-.83 1.554-.387.167-.933.26-1.616.26h-12.388v39.727h8.777c1.113 0 1.848.157 2.194.45.335.305.513 1.06.513 2.258v6.587zM478.616 126.565c0 .693-.105 1.165-.325 1.417-.21.262-.702.388-1.48.388h-32.89c-.778 0-1.27-.126-1.492-.388-.21-.252-.315-.724-.315-1.417v-8.388c0-.682.105-1.155.315-1.417.22-.252.714-.388 1.49-.388h8.253V76.645h-8.387c-.766 0-1.27-.136-1.48-.388-.21-.262-.325-.735-.325-1.428v-8.38c0-.692.116-1.164.325-1.416.21-.262.714-.388 1.48-.388h22.97c.767 0 1.26.126 1.48.388.21.252.326.724.326 1.417v49.922h8.25c.778 0 1.27.136 1.48.388.22.262.326.735.326 1.417v8.388zm-7.738-81.017c0 3.013-1.03 5.543-3.097 7.61-2.067 2.07-4.555 3.098-7.484 3.098-3.013 0-5.543-1.03-7.61-3.097-2.06-2.07-3.098-4.6-3.098-7.612 0-3.013 1.04-5.522 3.097-7.548 2.068-2.016 4.598-3.034 7.61-3.034 2.93 0 5.418 1.018 7.486 3.034 2.07 2.026 3.098 4.535 3.098 7.548zM503.518 100.896c0 1.806.168 3.653.514 5.543.346 1.89 1.03 3.63 2.068 5.227 1.03 1.585 2.467 2.877 4.315 3.863 1.848.997 4.283 1.49 7.297 1.49 2.32 0 4.378-.22 6.184-.65 1.806-.43 3.402-.924 4.777-1.48 1.375-.556 2.52-1.05 3.423-1.48.903-.43 1.564-.65 1.995-.65.6 0 1.072.345 1.418 1.028l3.223 7.748c.095.168.18.388.263.64.084.262.126.514.126.777 0 .86-.725 1.743-2.195 2.646-1.46.902-3.307 1.72-5.543 2.445-2.236.735-4.703 1.333-7.422 1.806-2.71.473-5.344.715-7.926.715-4.304 0-8.22-.63-11.737-1.87-3.527-1.248-6.562-3.222-9.102-5.94-2.53-2.71-4.514-6.164-5.932-10.384-1.417-4.21-2.13-9.28-2.13-15.222 0-5.155.67-9.87 2.004-14.12 1.333-4.263 3.223-7.917 5.67-10.972 2.456-3.045 5.416-5.417 8.902-7.097 3.485-1.67 7.38-2.51 11.673-2.51 5.5 0 9.932 1.092 13.29 3.286 3.35 2.194 5.954 5.008 7.8 8.45s3.098 7.245 3.75 11.423c.64 4.167.965 8.188.965 12.05 0 1.208-.2 2.048-.577 2.52-.387.473-1.185.715-2.393.715h-34.7zm20.252-12c0-1.29-.063-2.77-.19-4.45-.135-1.68-.503-3.265-1.1-4.777-.6-1.502-1.523-2.752-2.773-3.738s-2.992-1.48-5.228-1.48c-2.49 0-4.452.577-5.87 1.743-1.417 1.155-2.488 2.53-3.223 4.126-.735 1.586-1.207 3.203-1.417 4.84-.22 1.628-.367 2.878-.45 3.738h20.25z"/></g></g></svg>