<svg xmlns="http://www.w3.org/2000/svg" width="218" height="225.302" viewBox="0 0 218 225.302"><g><path fill="#2C3E50" d="M192.537 15.634H78.142V7.058c0-3.43-2.78-6.21-6.21-6.21H34.245c-3.43 0-6.21 2.78-6.21 6.21v8.577H25.08C11.363 15.635.243 26.755.243 40.472v85.588c0 13.717 11.12 24.837 24.837 24.837h167.457c13.717 0 24.837-11.12 24.837-24.837V40.47c0-13.716-11.12-24.836-24.837-24.836zm-67.574 115c-25.783 0-46.685-20.9-46.685-46.684 0-25.783 20.902-46.685 46.685-46.685s46.685 20.9 46.685 46.685c0 25.783-20.9 46.685-46.685 46.685z"/><path fill="#E84C3C" d="M145.043 84.258c0 10.006-8.11 18.117-18.117 18.117s-18.117-8.11-18.117-18.117 8.11-18.117 18.116-18.117V84.26h18.117z"/><g fill="#2C3E50"><path d="M25.68 171.707c-.48-.182-1.22-.422-2.238-.72-1.01-.298-2.26-.443-3.75-.443-1.01 0-2.022.116-3.032.356-1.018.24-1.926.625-2.726 1.163-.807.538-1.446 1.25-1.92 2.144-.48.894-.72 1.992-.72 3.3 0 1.73.582 3.147 1.745 4.245 1.162 1.105 2.645 2.115 4.462 3.038s3.8 1.89 5.938 2.9c2.144 1.018 4.2 2.23 6.164 3.663 2.268 1.73 4.114 3.794 5.54 6.207 1.43 2.413 2.143 5.313 2.143 8.708 0 2.857-.48 5.437-1.432 7.727s-2.275 4.274-3.97 5.938c-1.7 1.672-3.742 2.95-6.12 3.845-2.383.887-4.97 1.337-7.77 1.337-1.67 0-3.575-.138-5.72-.4-2.136-.27-4.15-.66-6.025-1.163-1.875-.51-3.453-1.134-4.732-1.875-1.287-.75-1.92-1.62-1.92-2.64v-13.482c0-.596.088-.996.263-1.207.183-.21.597-.313 1.25-.313h6.615c.654 0 1.068.087 1.25.27.174.173.27.595.27 1.25v8.125c.653.24 1.736.596 3.255 1.068 1.52.48 3.227.72 5.14.72 2.5 0 4.462-.67 5.894-2.013 1.425-1.337 2.144-3.41 2.144-6.207 0-1.963-.523-3.554-1.563-4.775-1.047-1.22-2.413-2.304-4.114-3.264-1.693-.953-3.648-1.89-5.85-2.814-2.202-.923-4.434-2.064-6.694-3.438-2.384-1.425-4.274-3.17-5.67-5.226-1.403-2.05-2.1-4.92-2.1-8.613 0-3.22.537-5.976 1.605-8.265 1.07-2.29 2.516-4.18 4.333-5.67s3.896-2.58 6.25-3.264 4.842-1.024 7.46-1.024c1.547 0 3.263.13 5.138.4 1.876.27 3.613.67 5.227 1.207 1.606.538 2.944 1.163 4.02 1.875 1.068.712 1.606 1.52 1.606 2.413v12.06c0 .654-.11 1.068-.313 1.25-.21.174-.61.27-1.207.27H27.2c-.66 0-1.076-.095-1.257-.27-.174-.182-.262-.596-.262-1.25v-7.143zM46.222 204.576c-.836 0-1.388-.167-1.657-.494-.262-.327-.4-.91-.4-1.744 0-2.675.225-5.46.67-8.344.45-2.893 1.315-5.524 2.594-7.908 1.278-2.384 3.08-4.332 5.4-5.85 2.326-1.52 5.393-2.276 9.202-2.276 2.973 0 5.67.58 8.083 1.737 2.413 1.163 4.463 2.806 6.164 4.914 1.693 2.116 3 4.646 3.924 7.597.923 2.944 1.388 6.207 1.388 9.776 0 4.114-.494 7.625-1.476 10.54-.98 2.92-2.355 5.312-4.107 7.188-1.76 1.884-3.86 3.25-6.303 4.115-2.435.858-5.146 1.294-8.126 1.294-1.787 0-3.61-.168-5.487-.495-1.883-.327-3.59-.74-5.14-1.25-1.547-.502-2.826-1.068-3.837-1.694-1.018-.624-1.52-1.235-1.52-1.83 0-.183.03-.357.088-.54.058-.173.116-.326.182-.442l2.23-5.364c.24-.472.568-.712.982-.712.298 0 .756.153 1.38.45s1.418.64 2.37 1.026 2.058.727 3.308 1.025c1.25.298 2.675.45 4.28.45 2.087 0 3.773-.34 5.053-1.03 1.278-.684 2.274-1.578 2.986-2.676.72-1.105 1.192-2.31 1.432-3.62.24-1.308.356-2.588.356-3.838H46.222zm24.023-8.308c-.058-.596-.16-1.46-.313-2.588-.145-1.134-.472-2.253-.98-3.35-.51-1.106-1.25-2.058-2.232-2.858-.98-.807-2.34-1.207-4.063-1.207-1.548 0-2.755.342-3.62 1.025-.865.683-1.505 1.548-1.92 2.588-.413 1.047-.668 2.144-.762 3.307-.087 1.163-.13 2.188-.13 3.082h14.02zM91.15 167.862h-4.47c-.532 0-.88-.087-1.026-.27-.153-.173-.225-.5-.225-.98v-5.8c0-.48.072-.807.224-.99.145-.173.494-.26 1.025-.26h14.558c.538 0 .88.086 1.032.26.145.183.218.51.218.99v48.67c0 1.433.11 2.683.313 3.76.212 1.067.94 1.605 2.19 1.605.893 0 1.62-.138 2.187-.407.567-.262 1.003-.4 1.3-.4.357 0 .59.182.713.538l1.788 7.327c.116.233.174.472.174.712 0 .298-.27.596-.8.894-.538.3-1.236.56-2.1.8s-1.833.437-2.9.582c-1.077.153-2.145.225-3.22.225-2.74 0-4.856-.51-6.34-1.52-1.49-1.01-2.58-2.354-3.263-4.02s-1.084-3.51-1.208-5.538c-.116-2.022-.174-4.08-.174-6.165v-40.013zM141.52 221.723c0 .836-.124 1.352-.356 1.563-.24.21-.75.313-1.52.313H116.78c-.77 0-1.28-.103-1.52-.314-.24-.21-.355-.727-.355-1.563v-4.557c0-.83.116-1.352.356-1.563.24-.204.748-.313 1.518-.313h5.45v-27.504h-6.344c-.77 0-1.28-.11-1.52-.313-.232-.21-.355-.734-.355-1.57v-4.55c0-.836.123-1.352.355-1.563.24-.21.75-.313 1.52-.313h6.344v-3.663c0-2.442.232-4.703.71-6.79.473-2.085 1.28-3.866 2.414-5.356 1.127-1.49 2.602-2.653 4.42-3.482 1.816-.836 4.062-1.257 6.744-1.257 1.01 0 2.144.093 3.394.268 1.25.182 2.442.407 3.57.676 1.133.262 2.07.61 2.812 1.025.75.413 1.12.835 1.12 1.25 0 .173-.06.442-.183.8l-1.605 6.257c-.058.174-.16.37-.313.574-.145.212-.313.314-.487.314-.48 0-1.207-.247-2.188-.756-.99-.502-2.34-.756-4.07-.756-1.192 0-2.13.174-2.813.53-.683.357-1.192.85-1.52 1.477-.326.624-.515 1.387-.573 2.274-.064.894-.093 1.875-.093 2.95v3.664h10.183c.414 0 .77.058 1.076.174.29.124.443.356.443.72 0 .174-.016.327-.045.443-.03.124-.073.27-.138.443l-1.25 5.27c-.116.596-.313.96-.574 1.076-.27.116-.647.182-1.12.182h-8.576v27.504h6.077c.77 0 1.28.11 1.52.313.232.21.355.734.355 1.563v4.557zM173.85 222.348c0 .48-.072.807-.224.98-.145.183-.487.27-1.025.27H149.83c-.538 0-.88-.087-1.032-.27-.145-.173-.218-.5-.218-.98v-5.808c0-.472.073-.8.218-.98.153-.175.494-.27 1.032-.27h5.713v-27.504h-5.807c-.53 0-.88-.094-1.025-.27-.145-.18-.225-.508-.225-.988v-5.8c0-.48.08-.807.225-.98.145-.183.494-.27 1.025-.27h15.904c.53 0 .872.087 1.025.27.145.173.225.5.225.98v34.562h5.713c.538 0 .88.094 1.025.27.153.18.225.508.225.98v5.808zm-5.356-56.092c0 2.086-.712 3.838-2.144 5.27s-3.155 2.144-5.182 2.144c-2.086 0-3.838-.712-5.27-2.144-1.425-1.432-2.144-3.184-2.144-5.27s.72-3.823 2.144-5.226c1.432-1.396 3.184-2.1 5.27-2.1 2.028 0 3.75.704 5.182 2.1 1.432 1.403 2.144 3.14 2.144 5.226zM191.092 204.576c0 1.25.116 2.53.356 3.838.24 1.308.712 2.515 1.432 3.62.712 1.098 1.708 1.992 2.987 2.675 1.28.69 2.966 1.03 5.052 1.03 1.605 0 3.03-.152 4.28-.45s2.355-.64 3.307-1.025c.952-.385 1.744-.727 2.37-1.025.625-.298 1.083-.45 1.38-.45.415 0 .742.24.982.71l2.23 5.365c.065.116.124.27.182.443.058.182.087.356.087.538 0 .596-.503 1.207-1.52 1.832-1.01.625-2.29 1.192-3.838 1.694-1.548.51-3.256.923-5.14 1.25-1.874.327-3.7.494-5.487.494-2.98 0-5.69-.436-8.126-1.294-2.443-.865-4.544-2.23-6.303-4.114-1.752-1.875-3.125-4.267-4.107-7.19-.98-2.914-1.476-6.424-1.476-10.538 0-3.57.465-6.832 1.388-9.776.923-2.95 2.23-5.48 3.925-7.596 1.7-2.108 3.75-3.75 6.164-4.914 2.414-1.156 5.11-1.737 8.084-1.737 3.81 0 6.876.756 9.202 2.275 2.32 1.52 4.12 3.467 5.4 5.85 1.28 2.385 2.145 5.016 2.596 7.91.443 2.885.67 5.67.67 8.343 0 .836-.14 1.417-.4 1.744-.27.326-.822.493-1.658.493h-24.022zm14.02-8.308c0-.894-.043-1.92-.13-3.082-.094-1.163-.35-2.26-.763-3.307-.415-1.04-1.055-1.905-1.92-2.59-.865-.682-2.072-1.024-3.62-1.024-1.723 0-3.082.4-4.063 1.207-.98.8-1.723 1.752-2.23 2.857-.51 1.098-.837 2.217-.982 3.35-.153 1.128-.254 1.993-.313 2.59h14.02z"/></g></g></svg>