<?xml version="1.0" encoding="utf-8"?>
<!-- Generator: Adobe Illustrator 17.0.0, SVG Export Plug-In . SVG Version: 6.00 Build 0)  -->
<!DOCTYPE svg PUBLIC "-//W3C//DTD SVG 1.1//EN" "http://www.w3.org/Graphics/SVG/1.1/DTD/svg11.dtd">
<svg version="1.1" xmlns="http://www.w3.org/2000/svg" xmlns:xlink="http://www.w3.org/1999/xlink" x="0px" y="0px" width="218px"
	 height="225.302px" viewBox="0 0 218 225.302" enable-background="new 0 0 218 225.302" xml:space="preserve">
<g id="Ebene_1">
</g>
<g id="Ebene_2">
	<path fill="#2C3E50" d="M192.537,15.634H78.142V7.058c0-3.429-2.78-6.209-6.209-6.209H34.244c-3.429,0-6.209,2.78-6.209,6.209
		v8.577H25.08c-13.717,0-24.837,11.12-24.837,24.837v85.588c0,13.717,11.12,24.837,24.837,24.837h167.457
		c13.717,0,24.837-11.12,24.837-24.837V40.471C217.374,26.754,206.255,15.634,192.537,15.634z M124.963,130.635
		c-25.783,0-46.685-20.902-46.685-46.685c0-25.783,20.902-46.685,46.685-46.685s46.685,20.901,46.685,46.685
		C171.648,109.733,150.747,130.635,124.963,130.635z"/>
	<path fill="#E84C3C" d="M145.043,84.258c0,10.006-8.111,18.117-18.117,18.117s-18.117-8.111-18.117-18.117
		s8.111-18.117,18.117-18.117v18.117H145.043z"/>
	<g>
		<path fill="#2C3E50" d="M25.681,171.707c-0.48-0.182-1.221-0.422-2.239-0.72c-1.01-0.298-2.261-0.443-3.751-0.443
			c-1.01,0-2.021,0.116-3.031,0.356c-1.018,0.24-1.926,0.625-2.726,1.163c-0.807,0.538-1.446,1.25-1.919,2.144
			c-0.48,0.894-0.72,1.992-0.72,3.3c0,1.73,0.581,3.147,1.744,4.245c1.163,1.105,2.646,2.115,4.463,3.038s3.801,1.89,5.938,2.9
			c2.144,1.018,4.201,2.231,6.164,3.663c2.268,1.73,4.114,3.794,5.539,6.207c1.432,2.413,2.144,5.313,2.144,8.708
			c0,2.857-0.48,5.437-1.432,7.727s-2.275,4.274-3.969,5.938c-1.701,1.672-3.743,2.951-6.12,3.845
			c-2.384,0.887-4.972,1.337-7.77,1.337c-1.672,0-3.576-0.138-5.72-0.4c-2.137-0.269-4.15-0.661-6.026-1.163
			c-1.875-0.509-3.453-1.134-4.732-1.875c-1.287-0.749-1.919-1.621-1.919-2.639v-13.483c0-0.596,0.087-0.996,0.262-1.207
			c0.182-0.211,0.596-0.313,1.25-0.313h6.614c0.654,0,1.068,0.087,1.25,0.269c0.174,0.174,0.269,0.596,0.269,1.25v8.126
			c0.654,0.24,1.737,0.596,3.256,1.068c1.519,0.48,3.227,0.72,5.139,0.72c2.5,0,4.463-0.669,5.895-2.013
			c1.425-1.337,2.144-3.409,2.144-6.207c0-1.963-0.523-3.554-1.563-4.775c-1.047-1.221-2.413-2.304-4.114-3.264
			c-1.694-0.952-3.649-1.89-5.851-2.813c-2.202-0.923-4.434-2.064-6.694-3.438c-2.384-1.425-4.274-3.169-5.67-5.226
			c-1.403-2.05-2.101-4.921-2.101-8.613c0-3.22,0.538-5.975,1.606-8.264c1.068-2.29,2.515-4.179,4.332-5.67s3.896-2.58,6.251-3.264
			s4.841-1.025,7.458-1.025c1.548,0,3.264,0.131,5.139,0.4c1.875,0.269,3.612,0.669,5.226,1.207c1.606,0.538,2.944,1.163,4.02,1.875
			c1.068,0.712,1.606,1.519,1.606,2.413v12.059c0,0.654-0.109,1.068-0.313,1.25c-0.211,0.174-0.611,0.269-1.207,0.269H27.2
			c-0.661,0-1.076-0.094-1.257-0.269c-0.174-0.182-0.262-0.596-0.262-1.25V171.707z"/>
		<path fill="#2C3E50" d="M46.222,204.576c-0.836,0-1.388-0.167-1.657-0.494c-0.262-0.327-0.4-0.909-0.4-1.744
			c0-2.675,0.225-5.459,0.669-8.344c0.451-2.893,1.316-5.524,2.595-7.908c1.279-2.384,3.082-4.332,5.401-5.851
			c2.326-1.519,5.393-2.275,9.202-2.275c2.973,0,5.67,0.581,8.083,1.737c2.413,1.163,4.463,2.806,6.164,4.914
			c1.694,2.115,3.002,4.645,3.925,7.596c0.923,2.944,1.388,6.207,1.388,9.776c0,4.114-0.494,7.625-1.476,10.539
			c-0.981,2.922-2.355,5.313-4.107,7.189c-1.759,1.883-3.86,3.249-6.302,4.114c-2.435,0.858-5.146,1.294-8.126,1.294
			c-1.788,0-3.612-0.167-5.488-0.494c-1.883-0.327-3.591-0.741-5.139-1.25c-1.548-0.502-2.827-1.068-3.838-1.694
			c-1.018-0.625-1.519-1.236-1.519-1.832c0-0.182,0.029-0.356,0.087-0.538c0.058-0.174,0.116-0.327,0.182-0.443l2.231-5.364
			c0.24-0.472,0.567-0.712,0.981-0.712c0.298,0,0.756,0.153,1.381,0.451s1.417,0.64,2.37,1.025s2.057,0.727,3.307,1.025
			c1.25,0.298,2.675,0.451,4.281,0.451c2.086,0,3.772-0.342,5.052-1.032c1.279-0.683,2.275-1.577,2.987-2.675
			c0.72-1.105,1.192-2.311,1.432-3.62c0.24-1.308,0.356-2.588,0.356-3.838H46.222z M70.245,196.268
			c-0.058-0.596-0.16-1.461-0.313-2.588c-0.145-1.134-0.472-2.253-0.981-3.351c-0.509-1.105-1.25-2.057-2.231-2.857
			c-0.981-0.807-2.34-1.207-4.063-1.207c-1.548,0-2.755,0.342-3.62,1.025c-0.865,0.683-1.505,1.548-1.919,2.588
			c-0.414,1.047-0.669,2.144-0.763,3.307c-0.087,1.163-0.131,2.188-0.131,3.082H70.245z"/>
		<path fill="#2C3E50" d="M91.149,167.862h-4.47c-0.531,0-0.879-0.087-1.025-0.269c-0.153-0.174-0.225-0.502-0.225-0.981v-5.8
			c0-0.48,0.073-0.807,0.225-0.989c0.145-0.174,0.494-0.262,1.025-0.262h14.559c0.538,0,0.879,0.087,1.032,0.262
			c0.145,0.182,0.218,0.509,0.218,0.989v48.671c0,1.432,0.109,2.682,0.313,3.758c0.211,1.068,0.938,1.606,2.188,1.606
			c0.894,0,1.621-0.138,2.188-0.407c0.567-0.262,1.003-0.4,1.301-0.4c0.356,0,0.589,0.182,0.712,0.538l1.788,7.327
			c0.116,0.233,0.174,0.472,0.174,0.712c0,0.298-0.269,0.596-0.8,0.894c-0.538,0.298-1.236,0.56-2.101,0.8s-1.832,0.436-2.9,0.581
			c-1.076,0.153-2.144,0.225-3.22,0.225c-2.74,0-4.855-0.509-6.338-1.519c-1.49-1.01-2.58-2.355-3.264-4.02
			s-1.083-3.511-1.207-5.539c-0.116-2.021-0.174-4.078-0.174-6.164V167.862z"/>
		<path fill="#2C3E50" d="M141.52,221.723c0,0.836-0.124,1.352-0.356,1.563c-0.24,0.211-0.749,0.313-1.519,0.313h-22.867
			c-0.77,0-1.279-0.102-1.519-0.313c-0.24-0.211-0.356-0.727-0.356-1.563v-4.557c0-0.829,0.116-1.352,0.356-1.563
			c0.24-0.204,0.749-0.313,1.519-0.313h5.451v-27.504h-6.345c-0.77,0-1.279-0.109-1.519-0.313c-0.233-0.211-0.356-0.734-0.356-1.57
			v-4.55c0-0.836,0.124-1.352,0.356-1.563c0.24-0.211,0.749-0.313,1.519-0.313h6.345v-3.663c0-2.442,0.233-4.703,0.712-6.789
			c0.472-2.086,1.279-3.867,2.413-5.357c1.127-1.49,2.602-2.653,4.419-3.482c1.817-0.836,4.063-1.257,6.745-1.257
			c1.01,0,2.144,0.094,3.394,0.269c1.25,0.182,2.442,0.407,3.569,0.676c1.134,0.262,2.072,0.611,2.813,1.025
			c0.749,0.414,1.119,0.836,1.119,1.25c0,0.174-0.058,0.443-0.182,0.8l-1.606,6.258c-0.058,0.174-0.16,0.371-0.313,0.574
			c-0.145,0.211-0.313,0.313-0.487,0.313c-0.48,0-1.207-0.247-2.188-0.756c-0.989-0.502-2.34-0.756-4.07-0.756
			c-1.192,0-2.13,0.174-2.813,0.531c-0.683,0.356-1.192,0.85-1.519,1.476c-0.327,0.625-0.516,1.388-0.574,2.275
			c-0.065,0.894-0.094,1.875-0.094,2.951v3.663h10.183c0.414,0,0.77,0.058,1.076,0.174c0.291,0.124,0.443,0.356,0.443,0.72
			c0,0.174-0.015,0.327-0.044,0.443c-0.029,0.124-0.073,0.269-0.138,0.443l-1.25,5.27c-0.116,0.596-0.313,0.959-0.574,1.076
			c-0.269,0.116-0.647,0.182-1.119,0.182h-8.577v27.504h6.077c0.77,0,1.279,0.109,1.519,0.313c0.233,0.211,0.356,0.734,0.356,1.563
			V221.723z"/>
		<path fill="#2C3E50" d="M173.851,222.348c0,0.48-0.073,0.807-0.225,0.981c-0.145,0.182-0.487,0.269-1.025,0.269h-22.773
			c-0.538,0-0.879-0.087-1.032-0.269c-0.145-0.174-0.218-0.502-0.218-0.981v-5.808c0-0.472,0.073-0.8,0.218-0.981
			c0.153-0.174,0.494-0.269,1.032-0.269h5.713v-27.504h-5.808c-0.531,0-0.88-0.094-1.025-0.269
			c-0.145-0.182-0.225-0.509-0.225-0.989v-5.8c0-0.48,0.08-0.807,0.225-0.981c0.145-0.182,0.494-0.269,1.025-0.269h15.904
			c0.531,0,0.872,0.087,1.025,0.269c0.145,0.174,0.225,0.502,0.225,0.981v34.562h5.713c0.538,0,0.88,0.094,1.025,0.269
			c0.153,0.182,0.225,0.509,0.225,0.981V222.348z M168.494,166.256c0,2.086-0.712,3.838-2.144,5.27s-3.155,2.144-5.182,2.144
			c-2.086,0-3.838-0.712-5.27-2.144c-1.425-1.432-2.144-3.184-2.144-5.27s0.72-3.823,2.144-5.226
			c1.432-1.396,3.184-2.101,5.27-2.101c2.028,0,3.751,0.705,5.182,2.101C167.782,162.433,168.494,164.17,168.494,166.256z"/>
		<path fill="#2C3E50" d="M191.092,204.576c0,1.25,0.116,2.529,0.356,3.838c0.24,1.308,0.712,2.515,1.432,3.62
			c0.712,1.098,1.708,1.992,2.987,2.675c1.279,0.691,2.966,1.032,5.052,1.032c1.606,0,3.031-0.153,4.281-0.451
			s2.355-0.64,3.307-1.025c0.952-0.385,1.744-0.727,2.37-1.025c0.625-0.298,1.083-0.451,1.381-0.451c0.414,0,0.741,0.24,0.981,0.712
			l2.231,5.364c0.065,0.116,0.124,0.269,0.182,0.443c0.058,0.182,0.087,0.356,0.087,0.538c0,0.596-0.502,1.207-1.519,1.832
			c-1.01,0.625-2.29,1.192-3.838,1.694c-1.548,0.509-3.256,0.923-5.139,1.25c-1.875,0.327-3.7,0.494-5.488,0.494
			c-2.98,0-5.691-0.436-8.126-1.294c-2.442-0.865-4.543-2.231-6.302-4.114c-1.752-1.875-3.125-4.267-4.107-7.189
			c-0.981-2.915-1.476-6.425-1.476-10.539c0-3.569,0.465-6.832,1.388-9.776c0.923-2.951,2.231-5.481,3.925-7.596
			c1.701-2.108,3.751-3.751,6.164-4.914c2.413-1.156,5.11-1.737,8.083-1.737c3.809,0,6.876,0.756,9.202,2.275
			c2.319,1.519,4.121,3.467,5.401,5.851c1.279,2.384,2.144,5.015,2.595,7.908c0.443,2.886,0.669,5.67,0.669,8.344
			c0,0.836-0.138,1.417-0.4,1.744c-0.269,0.327-0.821,0.494-1.657,0.494H191.092z M205.113,196.268c0-0.894-0.044-1.919-0.131-3.082
			c-0.094-1.163-0.349-2.261-0.763-3.307c-0.414-1.039-1.054-1.904-1.919-2.588c-0.865-0.683-2.072-1.025-3.62-1.025
			c-1.723,0-3.082,0.4-4.063,1.207c-0.981,0.8-1.723,1.752-2.231,2.857c-0.509,1.098-0.836,2.217-0.981,3.351
			c-0.153,1.127-0.254,1.992-0.313,2.588H205.113z"/>
	</g>
</g>
</svg>
