<?xml version="1.0" encoding="utf-8"?>
<!-- Generator: Adobe Illustrator 17.0.0, SVG Export Plug-In . SVG Version: 6.00 Build 0)  -->
<!DOCTYPE svg PUBLIC "-//W3C//DTD SVG 1.1//EN" "http://www.w3.org/Graphics/SVG/1.1/DTD/svg11.dtd">
<svg version="1.1" xmlns="http://www.w3.org/2000/svg" xmlns:xlink="http://www.w3.org/1999/xlink" x="0px" y="0px"
	 width="542.167px" height="152.917px" viewBox="0 0 542.167 152.917" enable-background="new 0 0 542.167 152.917"
	 xml:space="preserve">
<g id="Ebene_1">
	<path fill="#2C3E50" d="M192.871,16.083H78.475V7.506c0-3.429-2.78-6.209-6.209-6.209H34.577c-3.429,0-6.209,2.78-6.209,6.209
		v8.577h-2.955c-13.717,0-24.837,11.12-24.837,24.837v85.588c0,13.717,11.12,24.837,24.837,24.837h167.457
		c13.717,0,24.837-11.12,24.837-24.837V40.92C217.708,27.203,206.588,16.083,192.871,16.083z M125.297,131.083
		c-25.783,0-46.685-20.902-46.685-46.685c0-25.783,20.902-46.685,46.685-46.685s46.685,20.901,46.685,46.685
		C171.981,110.181,151.08,131.083,125.297,131.083z"/>
	<path fill="#E84C3C" d="M145.376,84.706c0,10.006-8.111,18.117-18.117,18.117s-18.117-8.111-18.117-18.117
		s8.111-18.117,18.117-18.117v18.117H145.376z"/>
	<g>
		<path fill="#2C3E50" d="M264.603,53.422c-0.693-0.262-1.764-0.609-3.234-1.039c-1.459-0.43-3.265-0.64-5.417-0.64
			c-1.459,0-2.919,0.168-4.378,0.514c-1.47,0.346-2.782,0.903-3.937,1.68c-1.165,0.777-2.089,1.806-2.772,3.097
			c-0.693,1.291-1.039,2.877-1.039,4.766c0,2.499,0.84,4.546,2.52,6.131c1.68,1.596,3.821,3.055,6.446,4.388s5.491,2.73,8.577,4.189
			c3.097,1.47,6.068,3.223,8.903,5.291c3.276,2.499,5.942,5.48,8,8.966c2.068,3.486,3.097,7.674,3.097,12.577
			c0,4.126-0.693,7.853-2.068,11.16c-1.375,3.307-3.286,6.173-5.732,8.577c-2.457,2.415-5.407,4.262-8.84,5.554
			c-3.444,1.281-7.181,1.932-11.223,1.932c-2.415,0-5.165-0.199-8.262-0.577c-3.087-0.388-5.995-0.955-8.703-1.68
			c-2.709-0.735-4.987-1.638-6.835-2.709c-1.858-1.081-2.772-2.341-2.772-3.811v-19.475c0-0.861,0.126-1.438,0.378-1.743
			c0.262-0.304,0.861-0.451,1.806-0.451h9.554c0.945,0,1.543,0.126,1.806,0.388c0.252,0.252,0.388,0.861,0.388,1.806v11.737
			c0.945,0.346,2.509,0.861,4.703,1.543c2.194,0.693,4.661,1.039,7.422,1.039c3.611,0,6.446-0.966,8.514-2.908
			c2.058-1.932,3.097-4.924,3.097-8.966c0-2.835-0.756-5.134-2.257-6.898c-1.512-1.764-3.486-3.328-5.942-4.714
			c-2.446-1.375-5.27-2.73-8.451-4.063c-3.181-1.333-6.404-2.982-9.669-4.966c-3.444-2.058-6.173-4.577-8.189-7.548
			c-2.026-2.961-3.034-7.108-3.034-12.441c0-4.651,0.777-8.63,2.32-11.937c1.543-3.307,3.633-6.037,6.257-8.189
			c2.625-2.152,5.627-3.727,9.029-4.714s6.992-1.48,10.771-1.48c2.236,0,4.714,0.189,7.422,0.577
			c2.709,0.388,5.218,0.966,7.548,1.743c2.32,0.777,4.252,1.68,5.806,2.709c1.543,1.029,2.32,2.194,2.32,3.486v17.417
			c0,0.945-0.157,1.543-0.451,1.806c-0.304,0.252-0.882,0.388-1.743,0.388h-9.543c-0.955,0-1.554-0.136-1.816-0.388
			c-0.252-0.262-0.378-0.861-0.378-1.806V53.422z"/>
		<path fill="#2C3E50" d="M294.272,100.896c-1.207,0-2.005-0.241-2.394-0.714c-0.378-0.472-0.577-1.312-0.577-2.52
			c0-3.863,0.325-7.884,0.966-12.052c0.651-4.178,1.9-7.979,3.748-11.422s4.451-6.257,7.8-8.451c3.36-2.194,7.79-3.286,13.291-3.286
			c4.294,0,8.189,0.84,11.674,2.509c3.486,1.68,6.446,4.052,8.903,7.097c2.446,3.055,4.336,6.709,5.669,10.971
			c1.333,4.252,2.005,8.966,2.005,14.121c0,5.942-0.714,11.013-2.131,15.223c-1.417,4.22-3.402,7.674-5.932,10.383
			c-2.541,2.719-5.575,4.693-9.102,5.942c-3.517,1.239-7.433,1.869-11.737,1.869c-2.583,0-5.218-0.241-7.926-0.714
			c-2.719-0.472-5.186-1.071-7.422-1.806c-2.236-0.724-4.084-1.543-5.543-2.446c-1.47-0.903-2.194-1.785-2.194-2.646
			c0-0.262,0.042-0.514,0.126-0.777c0.084-0.252,0.168-0.472,0.262-0.64l3.223-7.748c0.346-0.682,0.819-1.029,1.417-1.029
			c0.43,0,1.092,0.22,1.995,0.651c0.903,0.43,2.047,0.924,3.423,1.48c1.375,0.556,2.971,1.05,4.777,1.48
			c1.806,0.43,3.863,0.651,6.184,0.651c3.013,0,5.449-0.493,7.296-1.491c1.848-0.987,3.286-2.278,4.315-3.863
			c1.039-1.596,1.722-3.339,2.068-5.228c0.346-1.89,0.514-3.737,0.514-5.543H294.272z M328.97,88.897
			c-0.084-0.861-0.231-2.11-0.451-3.737c-0.21-1.638-0.682-3.255-1.417-4.84c-0.735-1.596-1.806-2.971-3.223-4.126
			c-1.417-1.165-3.381-1.743-5.869-1.743c-2.236,0-3.979,0.493-5.228,1.48s-2.173,2.236-2.772,3.737
			c-0.598,1.512-0.966,3.097-1.102,4.777c-0.126,1.68-0.189,3.16-0.189,4.451H328.97z"/>
		<path fill="#2C3E50" d="M359.164,47.868h-6.457c-0.766,0-1.27-0.126-1.48-0.388c-0.22-0.252-0.325-0.724-0.325-1.417v-8.378
			c0-0.693,0.105-1.165,0.325-1.428c0.21-0.252,0.714-0.378,1.48-0.378h21.029c0.777,0,1.27,0.126,1.491,0.378
			c0.21,0.262,0.315,0.735,0.315,1.428v70.298c0,2.068,0.157,3.874,0.451,5.428c0.304,1.543,1.354,2.32,3.16,2.32
			c1.291,0,2.341-0.199,3.16-0.588c0.819-0.378,1.449-0.577,1.879-0.577c0.514,0,0.85,0.262,1.029,0.777l2.583,10.583
			c0.168,0.336,0.252,0.682,0.252,1.029c0,0.43-0.388,0.861-1.155,1.291c-0.777,0.43-1.785,0.808-3.034,1.155
			s-2.646,0.63-4.189,0.84c-1.554,0.22-3.097,0.325-4.651,0.325c-3.958,0-7.013-0.735-9.155-2.194
			c-2.152-1.459-3.727-3.402-4.714-5.806c-0.987-2.404-1.564-5.071-1.743-8c-0.168-2.919-0.252-5.89-0.252-8.903V47.868z"/>
		<path fill="#2C3E50" d="M431.918,125.662c0,1.207-0.178,1.953-0.514,2.257c-0.346,0.304-1.081,0.451-2.194,0.451h-33.028
			c-1.113,0-1.848-0.147-2.194-0.451c-0.346-0.304-0.514-1.05-0.514-2.257v-6.583c0-1.197,0.168-1.953,0.514-2.257
			c0.346-0.294,1.081-0.451,2.194-0.451h7.874V76.645h-9.165c-1.113,0-1.848-0.157-2.194-0.451c-0.336-0.304-0.514-1.06-0.514-2.268
			v-6.572c0-1.207,0.178-1.953,0.514-2.257c0.346-0.304,1.081-0.451,2.194-0.451h9.165v-5.291c0-3.528,0.336-6.793,1.029-9.806
			c0.682-3.013,1.848-5.585,3.486-7.737c1.627-2.152,3.758-3.832,6.383-5.029c2.625-1.207,5.869-1.816,9.743-1.816
			c1.459,0,3.097,0.136,4.903,0.388c1.806,0.262,3.527,0.588,5.155,0.976c1.638,0.378,2.992,0.882,4.063,1.48
			c1.081,0.598,1.617,1.207,1.617,1.806c0,0.252-0.084,0.64-0.262,1.155l-2.32,9.039c-0.084,0.252-0.231,0.535-0.451,0.829
			c-0.21,0.304-0.451,0.451-0.703,0.451c-0.693,0-1.743-0.357-3.16-1.092c-1.428-0.724-3.381-1.092-5.879-1.092
			c-1.722,0-3.076,0.252-4.063,0.766c-0.987,0.514-1.722,1.228-2.194,2.131s-0.745,2.005-0.829,3.286
			c-0.094,1.291-0.136,2.709-0.136,4.262v5.291h14.708c0.598,0,1.113,0.084,1.554,0.252c0.42,0.178,0.64,0.514,0.64,1.039
			c0,0.252-0.021,0.472-0.063,0.64c-0.042,0.178-0.105,0.388-0.199,0.64l-1.806,7.611c-0.168,0.861-0.451,1.386-0.829,1.554
			c-0.388,0.168-0.934,0.262-1.617,0.262h-12.388v39.726h8.777c1.113,0,1.848,0.157,2.194,0.451c0.336,0.304,0.514,1.06,0.514,2.257
			V125.662z"/>
		<path fill="#2C3E50" d="M478.616,126.565c0,0.693-0.105,1.165-0.325,1.417c-0.21,0.262-0.703,0.388-1.48,0.388h-32.892
			c-0.777,0-1.27-0.126-1.491-0.388c-0.21-0.252-0.315-0.724-0.315-1.417v-8.388c0-0.682,0.105-1.155,0.315-1.417
			c0.22-0.252,0.714-0.388,1.491-0.388h8.252V76.645h-8.388c-0.766,0-1.27-0.136-1.48-0.388c-0.21-0.262-0.325-0.735-0.325-1.428
			v-8.378c0-0.693,0.116-1.165,0.325-1.417c0.21-0.262,0.714-0.388,1.48-0.388h22.971c0.766,0,1.26,0.126,1.48,0.388
			c0.21,0.252,0.325,0.724,0.325,1.417v49.921h8.252c0.777,0,1.27,0.136,1.48,0.388c0.22,0.262,0.325,0.735,0.325,1.417V126.565z
			 M470.878,45.548c0,3.013-1.029,5.543-3.097,7.611c-2.068,2.068-4.556,3.097-7.485,3.097c-3.013,0-5.543-1.029-7.611-3.097
			c-2.058-2.068-3.097-4.598-3.097-7.611c0-3.013,1.039-5.522,3.097-7.548c2.068-2.016,4.598-3.034,7.611-3.034
			c2.929,0,5.417,1.018,7.485,3.034C469.85,40.026,470.878,42.535,470.878,45.548z"/>
		<path fill="#2C3E50" d="M503.518,100.896c0,1.806,0.168,3.653,0.514,5.543c0.346,1.89,1.029,3.632,2.068,5.228
			c1.029,1.585,2.467,2.877,4.315,3.863c1.848,0.997,4.283,1.491,7.297,1.491c2.32,0,4.378-0.22,6.184-0.651
			c1.806-0.43,3.402-0.924,4.777-1.48c1.375-0.556,2.52-1.05,3.423-1.48c0.903-0.43,1.564-0.651,1.995-0.651
			c0.598,0,1.071,0.346,1.417,1.029l3.223,7.748c0.094,0.168,0.178,0.388,0.262,0.64c0.084,0.262,0.126,0.514,0.126,0.777
			c0,0.861-0.724,1.743-2.194,2.646c-1.459,0.903-3.307,1.722-5.543,2.446c-2.236,0.735-4.703,1.333-7.422,1.806
			c-2.709,0.472-5.344,0.714-7.926,0.714c-4.304,0-8.22-0.63-11.737-1.869c-3.527-1.249-6.562-3.223-9.102-5.942
			c-2.53-2.709-4.514-6.163-5.932-10.383c-1.417-4.21-2.131-9.281-2.131-15.223c0-5.155,0.672-9.869,2.005-14.121
			c1.333-4.262,3.223-7.916,5.669-10.971c2.457-3.045,5.417-5.417,8.903-7.097c3.486-1.669,7.38-2.509,11.674-2.509
			c5.501,0,9.932,1.092,13.291,3.286c3.349,2.194,5.953,5.008,7.8,8.451s3.097,7.244,3.748,11.422
			c0.64,4.168,0.966,8.189,0.966,12.052c0,1.207-0.2,2.047-0.577,2.52c-0.388,0.472-1.186,0.714-2.394,0.714H503.518z
			 M523.77,88.897c0-1.291-0.063-2.772-0.189-4.451c-0.136-1.68-0.504-3.265-1.102-4.777c-0.598-1.501-1.522-2.751-2.772-3.737
			s-2.992-1.48-5.228-1.48c-2.488,0-4.451,0.577-5.869,1.743c-1.417,1.155-2.488,2.53-3.223,4.126
			c-0.735,1.585-1.207,3.202-1.417,4.84c-0.22,1.627-0.367,2.877-0.451,3.737H523.77z"/>
	</g>
</g>
<g id="Ebene_2">
</g>
</svg>
